<mxfile host="app.diagrams.net" modified="2023-06-16T01:38:35.162Z" agent="Mozilla/5.0 (Windows NT 10.0; Win64; x64; rv:109.0) Gecko/20100101 Firefox/114.0" etag="PMw_QXqAIhngzCa1ESHR" version="21.4.0" type="github">
  <diagram name="PÃ¡gina-1" id="qiitNDDvcItFLZ3ub5Gt">
    <mxGraphModel dx="794" dy="386" grid="1" gridSize="10" guides="1" tooltips="1" connect="1" arrows="1" fold="1" page="1" pageScale="1" pageWidth="827" pageHeight="1169" math="0" shadow="0">
      <root>
        <mxCell id="0" />
        <mxCell id="1" parent="0" />
        <mxCell id="sgzJclYdW-gzY32w4yZL-18" value="" style="whiteSpace=wrap;html=1;fillColor=none;" vertex="1" parent="1">
          <mxGeometry x="195" y="81" width="450" height="275" as="geometry" />
        </mxCell>
        <mxCell id="sgzJclYdW-gzY32w4yZL-7" style="edgeStyle=orthogonalEdgeStyle;rounded=0;orthogonalLoop=1;jettySize=auto;html=1;endArrow=ERmany;endFill=0;" edge="1" parent="1" source="sgzJclYdW-gzY32w4yZL-1" target="sgzJclYdW-gzY32w4yZL-4">
          <mxGeometry relative="1" as="geometry" />
        </mxCell>
        <mxCell id="sgzJclYdW-gzY32w4yZL-8" style="edgeStyle=orthogonalEdgeStyle;rounded=0;orthogonalLoop=1;jettySize=auto;html=1;endArrow=ERmany;endFill=0;" edge="1" parent="1" source="sgzJclYdW-gzY32w4yZL-1" target="sgzJclYdW-gzY32w4yZL-6">
          <mxGeometry relative="1" as="geometry" />
        </mxCell>
        <mxCell id="sgzJclYdW-gzY32w4yZL-9" style="edgeStyle=orthogonalEdgeStyle;rounded=0;orthogonalLoop=1;jettySize=auto;html=1;entryX=0.5;entryY=0;entryDx=0;entryDy=0;endArrow=ERmany;endFill=0;" edge="1" parent="1" source="sgzJclYdW-gzY32w4yZL-1" target="sgzJclYdW-gzY32w4yZL-5">
          <mxGeometry relative="1" as="geometry" />
        </mxCell>
        <mxCell id="sgzJclYdW-gzY32w4yZL-1" value="&lt;div&gt;Departamento &lt;br&gt;&lt;/div&gt;&lt;div&gt;de Ventas&lt;/div&gt;" style="rounded=1;whiteSpace=wrap;html=1;fillColor=#D6AC22;strokeColor=#d79b00;gradientColor=#915E00;" vertex="1" parent="1">
          <mxGeometry x="358" y="88" width="120" height="60" as="geometry" />
        </mxCell>
        <mxCell id="sgzJclYdW-gzY32w4yZL-14" style="edgeStyle=orthogonalEdgeStyle;rounded=0;orthogonalLoop=1;jettySize=auto;html=1;entryX=0.25;entryY=0;entryDx=0;entryDy=0;endArrow=ERmany;endFill=0;" edge="1" parent="1" source="sgzJclYdW-gzY32w4yZL-4" target="sgzJclYdW-gzY32w4yZL-10">
          <mxGeometry relative="1" as="geometry" />
        </mxCell>
        <mxCell id="sgzJclYdW-gzY32w4yZL-4" value="marketing" style="rounded=1;whiteSpace=wrap;html=1;fillColor=#A60505;gradientColor=#EA4D4D;strokeColor=#b85450;" vertex="1" parent="1">
          <mxGeometry x="199" y="198" width="120" height="50" as="geometry" />
        </mxCell>
        <mxCell id="sgzJclYdW-gzY32w4yZL-13" style="edgeStyle=orthogonalEdgeStyle;rounded=0;orthogonalLoop=1;jettySize=auto;html=1;entryX=0.75;entryY=0;entryDx=0;entryDy=0;endArrow=ERmany;endFill=0;" edge="1" parent="1" source="sgzJclYdW-gzY32w4yZL-5" target="sgzJclYdW-gzY32w4yZL-10">
          <mxGeometry relative="1" as="geometry" />
        </mxCell>
        <mxCell id="sgzJclYdW-gzY32w4yZL-5" value="Negociaciones" style="rounded=1;whiteSpace=wrap;html=1;fillColor=#2D24B3;gradientColor=#7ea6e0;strokeColor=#6c8ebf;" vertex="1" parent="1">
          <mxGeometry x="358" y="200" width="120" height="50" as="geometry" />
        </mxCell>
        <mxCell id="sgzJclYdW-gzY32w4yZL-15" style="edgeStyle=orthogonalEdgeStyle;rounded=0;orthogonalLoop=1;jettySize=auto;html=1;entryX=0.5;entryY=0;entryDx=0;entryDy=0;endArrow=ERmany;endFill=0;" edge="1" parent="1" source="sgzJclYdW-gzY32w4yZL-6" target="sgzJclYdW-gzY32w4yZL-11">
          <mxGeometry relative="1" as="geometry" />
        </mxCell>
        <mxCell id="sgzJclYdW-gzY32w4yZL-6" value="&lt;div&gt;Acuerdos&lt;/div&gt;&lt;div&gt;(Contratos)&lt;/div&gt;" style="rounded=1;whiteSpace=wrap;html=1;fillColor=#CF5402;gradientColor=#FF9012;" vertex="1" parent="1">
          <mxGeometry x="521" y="199" width="120" height="50" as="geometry" />
        </mxCell>
        <mxCell id="sgzJclYdW-gzY32w4yZL-10" value="Jefe" style="rounded=0;whiteSpace=wrap;html=1;fillColor=#1A1A1A;fontColor=#FFFFFF;" vertex="1" parent="1">
          <mxGeometry x="312" y="320" width="60" height="30" as="geometry" />
        </mxCell>
        <mxCell id="sgzJclYdW-gzY32w4yZL-11" value="&lt;div&gt;Asistente&lt;/div&gt;&lt;div&gt;de jefe&lt;/div&gt;" style="rounded=0;whiteSpace=wrap;html=1;fontColor=#FFFFFF;fillColor=#1A1A1A;" vertex="1" parent="1">
          <mxGeometry x="551" y="319" width="60" height="30" as="geometry" />
        </mxCell>
      </root>
    </mxGraphModel>
  </diagram>
</mxfile>
